<svg width="27" height="32" viewBox="0 0 27 32" fill="none" xmlns="http://www.w3.org/2000/svg">
<path d="M27 32H0V0H27V32Z" stroke="#E5E7EB"/>
<g clip-path="url(#clip0_54_145)">
<path d="M18 25.3171L9 22.7437V4.68275L18 7.25619V25.3171ZM19.5 25.2609V7.14369L25.4578 4.75775C26.1984 4.46244 27 5.00619 27 5.80306V21.4968C27 21.9562 26.7188 22.3687 26.2922 22.5421L19.5 25.2562V25.2609ZM0.707813 7.45775L7.5 4.74369V22.8562L1.54219 25.2421C0.801563 25.5374 0 24.9937 0 24.1968V8.50306C0 8.04369 0.28125 7.63119 0.707813 7.45775Z" fill="#FFA726"/>
</g>
<defs>
<clipPath id="clip0_54_145">
<path d="M0 3H27V27H0V3Z" fill="white"/>
</clipPath>
</defs>
</svg>
