<svg width="30" height="32" viewBox="0 0 30 32" fill="none" xmlns="http://www.w3.org/2000/svg">
<path d="M30 32H0V0H30V32Z" stroke="#E5E7EB"/>
<g clip-path="url(#clip0_54_135)">
<path d="M6.75 3C7.74456 3 8.69839 3.39509 9.40165 4.09835C10.1049 4.80161 10.5 5.75544 10.5 6.75C10.5 7.74456 10.1049 8.69839 9.40165 9.40165C8.69839 10.1049 7.74456 10.5 6.75 10.5C5.75544 10.5 4.80161 10.1049 4.09835 9.40165C3.39509 8.69839 3 7.74456 3 6.75C3 5.75544 3.39509 4.80161 4.09835 4.09835C4.80161 3.39509 5.75544 3 6.75 3ZM24 3C24.9946 3 25.9484 3.39509 26.6516 4.09835C27.3549 4.80161 27.75 5.75544 27.75 6.75C27.75 7.74456 27.3549 8.69839 26.6516 9.40165C25.9484 10.1049 24.9946 10.5 24 10.5C23.0054 10.5 22.0516 10.1049 21.3484 9.40165C20.6451 8.69839 20.25 7.74456 20.25 6.75C20.25 5.75544 20.6451 4.80161 21.3484 4.09835C22.0516 3.39509 23.0054 3 24 3ZM0 17.0016C0 14.2406 2.24062 12 5.00156 12H7.00312C7.74844 12 8.45625 12.1641 9.09375 12.4547C9.03281 12.7922 9.00469 13.1438 9.00469 13.5C9.00469 15.2906 9.79219 16.8984 11.0344 18C11.025 18 11.0156 18 11.0016 18H0.998437C0.45 18 0 17.55 0 17.0016ZM18.9984 18C18.9891 18 18.9797 18 18.9656 18C20.2125 16.8984 20.9953 15.2906 20.9953 13.5C20.9953 13.1438 20.9625 12.7969 20.9062 12.4547C21.5438 12.1594 22.2516 12 22.9969 12H24.9984C27.7594 12 30 14.2406 30 17.0016C30 17.5547 29.55 18 29.0016 18H18.9984ZM10.5 13.5C10.5 12.3065 10.9741 11.1619 11.818 10.318C12.6619 9.47411 13.8065 9 15 9C16.1935 9 17.3381 9.47411 18.182 10.318C19.0259 11.1619 19.5 12.3065 19.5 13.5C19.5 14.6935 19.0259 15.8381 18.182 16.682C17.3381 17.5259 16.1935 18 15 18C13.8065 18 12.6619 17.5259 11.818 16.682C10.9741 15.8381 10.5 14.6935 10.5 13.5ZM6 25.7484C6 22.2984 8.79844 19.5 12.2484 19.5H17.7516C21.2016 19.5 24 22.2984 24 25.7484C24 26.4375 23.4422 27 22.7484 27H7.25156C6.5625 27 6 26.4422 6 25.7484Z" fill="#FFA726"/>
</g>
<defs>
<clipPath id="clip0_54_135">
<path d="M0 3H30V27H0V3Z" fill="white"/>
</clipPath>
</defs>
</svg>
